<svg xmlns="http://www.w3.org/2000/svg" viewBox="0 0 514 514" width="514" height="514">
  <defs>
    <style>
      .modport-1{fill:var(--transB,#f1f1f0);transform-origin:center;stroke:var(--linkC,#54790d);stroke-width:1px}.drK .modport-1{fill:var(--transB)}.mod-icon .modport-2{fill:rgba(225,20,98,0.9)}.mod-icon .modport-3{fill:rgba(111,202,220,0.9)}.mod-icon .modport-4{fill:rgba(61,184,143,0.9)}.mod-icon .modport-5{fill:rgba(233,169,32,0.9)}.mod-icon{transform:scale(0.9);transform-origin:center}
    </style>
  </defs>
  <!-- الخلفية الدائرية الخارجية -->
  <path class="modport-1" d="M250 41c-9 2-13 5-39 31l-25 25h-34c-34 0-35 1-39 3-8 4-13 9-16 16l-3 6-1 34v34l-25 25c-29 29-30 31-31 44 0 7 0 9 2 14 2 6 4 8 28 33l26 26v31c0 26 0 33 2 37 3 10 9 17 19 22l6 3h67l25 25c29 30 31 31 45 30 15 0 15 0 45-30l26-25h31c39 0 43-1 53-12 8-9 8-9 9-47v-34l26-26c24-24 26-27 28-32s2-8 2-15c-1-14-2-15-31-44l-25-26v-67l-4-6c-3-7-8-12-16-16-4-2-5-3-38-3h-34l-25-25c-14-14-28-26-30-27-7-4-16-6-24-4"/>
  <!-- مجموعة الأيقونة الداخلية -->
  <g class="mod-icon">
    <path class="modport-2" d="M195 167.9c-3.4 1.7-8 7.3-28 33.2l-8.8 11.5 14 18.2 14 18.2 3.8-3.4c6.6-6 14.2-7 21.3-2.8 2.5 1.5 19 22.2 68 85.9 6.5 8.4 13 16 14.5 17.1 6.5 4.5 15.5 5.5 20.2 2.2 2.7-1.9 43-53 43-54.5a301 301 0 0 0-24.2-30.3c-.5.2-5.5 6.4-11.1 13.7-9.5 12.4-13 16.2-14 15L273 247c-58.8-76.2-59.3-76.8-63.1-79a15.7 15.7 0 0 0-15-.1"/>
    <path class="modport-3" d="M104 180.4c-2 1.3-4.8 4.6-6.3 7.4-5.7 10.6-4.6 20.3 3.7 31C182 322.5 204.4 351 206.1 352c7 3.7 12.7 2.8 18-2.8a948 948 0 0 0 29.2-37c.6-.8-3-6-11.3-16.8L230 280l-4.5 3.2c-8.6 6.1-19.4 4.8-27-3.4-1.7-1.8-19.4-24.3-39.3-50a1327.4 1327.4 0 0 0-39.2-49.2c-4.1-3.5-11-3.6-16-.2"/>
    <path class="modport-4" d="M312 173.6c-2 1.2-35.7 43.5-42.7 53.4-1 1.5.4 3.8 10.3 16.6l12.4 15.7a87 87 0 0 0 13-15c6.7-8.7 12.8-15.8 13.5-15.8 1.3 0 39 47.6 44.2 56a950 950 0 0 0 35.7 45.4c3 2.4 10.8 2.6 15.2.3 10-5.1 16.2-17.1 13.4-25.6-.6-1.9-9.5-14.3-19.8-27.5L362.5 220a1046 1046 0 0 1-29-38.4c-4.1-6.6-8.5-9.5-14.4-9.5-2.5 0-5.7.8-7.1 1.6"/>
    <path class="modport-5" d="M106.8 282.6c-24.2 31.2-24.8 32-26.3 36.4a26.2 26.2 0 0 0 4.1 24.5c4.7 6.2 12 8.2 18.3 5a830 830 0 0 0 43.3-54c.6-1.1-21.2-30.7-23.2-31.4a191 191 0 0 0-16.2 19.5m298.8-118c-3 .8-8.8 4.8-12.2 8.4a446.8 446.8 0 0 0-26.1 38c-.3 1.1 4 7.6 11.4 17.3 11 14.7 11.9 15.5 13.3 13.7l14-20a4025 4025 0 0 1 16.2-23.3c8.5-12 7-28.6-2.9-33.3a26 26 0 0 0-13.7-.8"/>
  </g>
</svg>
